<svg width="102" height="125" viewBox="0 0 102 125" fill="none" xmlns="http://www.w3.org/2000/svg">
<path d="M72.9695 42.0827C72.0131 44.952 70.7191 47.7087 68.975 50.2404C66.6121 53.7286 64.1366 57.2167 60.1984 57.273C56.3165 57.3292 55.135 55.0226 50.7467 55.0226C46.3584 55.0226 45.0081 57.2167 41.3512 57.3855C37.5818 57.498 34.7125 53.6161 32.2933 50.1279C27.3424 43.0391 23.6292 30.043 28.6364 21.2664C31.0556 16.9343 35.5564 14.2339 40.5073 14.0651C44.2205 14.0088 47.7086 16.5405 49.959 16.5405C52.2095 16.5405 56.4852 13.4462 60.9298 13.8963C62.7864 13.9526 68.0186 14.6277 71.3942 19.5786C71.1129 19.7474 65.1493 23.2355 65.2056 30.4931C65.3744 39.1572 72.9132 42.0264 72.9695 42.0827ZM58.1168 9.17043C60.1422 6.75123 61.4924 3.37562 61.0986 0C58.2293 0.112521 54.7412 1.91285 52.6595 4.33204C50.8029 6.46993 49.1714 9.90181 49.6215 13.1649C52.8283 13.5025 56.0914 11.5896 58.1168 9.17043Z" fill="black"/>
<path d="M5.73856 76.6305C10.5769 76.6305 13.4462 79.6123 13.4462 84.732C13.4462 89.8516 10.5769 92.8897 5.73856 92.8897H0V76.5742L5.73856 76.6305ZM2.53171 90.7518H5.51352C9.00166 90.7518 10.8582 88.6139 10.8582 84.7882C10.8582 80.9625 8.9454 78.8246 5.51352 78.8246H2.53171V90.7518Z" fill="black"/>
<path d="M25.8795 89.4504C25.5419 91.5883 23.4603 93.1073 20.7598 93.1073C17.2717 93.1073 15.1338 90.8006 15.1338 87.0874C15.1338 83.3743 17.2717 80.9551 20.6473 80.9551C24.0229 80.9551 25.992 83.2055 25.992 86.8061V87.65H17.6093V87.8188C17.6093 89.8442 18.9032 91.1944 20.8161 91.1944C22.1663 91.1944 23.2353 90.5756 23.5728 89.5066L25.8795 89.4504ZM17.6655 85.906H23.6291C23.5728 84.1057 22.3914 82.8679 20.7036 82.8679C19.0158 82.8679 17.778 84.1057 17.6655 85.906Z" fill="black"/>
<path d="M33.8692 92.9422H31.2813L26.9492 81.0713H29.5935L32.5752 90.5793H32.6315L35.6133 81.0713H38.145L33.8692 92.9422Z" fill="black"/>
<path d="M49.5094 89.4504C49.1718 91.5883 47.0902 93.1073 44.3897 93.1073C40.9016 93.1073 38.7637 90.8006 38.7637 87.0874C38.7637 83.3743 40.9016 80.9551 44.2772 80.9551C47.6528 80.9551 49.6219 83.2055 49.6219 86.8061V87.65H41.2391V87.8188C41.2391 89.8442 42.5331 91.1944 44.446 91.1944C45.7962 91.1944 46.8652 90.5756 47.2027 89.5066L49.5094 89.4504ZM41.2391 85.906H47.2027C47.1465 84.1057 45.965 82.8679 44.2772 82.8679C42.5894 82.8679 41.4079 84.1057 41.2391 85.906Z" fill="black"/>
<path d="M54.4045 76.6289H51.9854V92.9444H54.4045V76.6289Z" fill="black"/>
<path d="M56.6553 87.0312C56.6553 83.318 58.8494 80.9551 62.2813 80.9551C65.7132 80.9551 67.9073 83.318 67.9073 87.0312C67.9073 90.7444 65.7132 93.1073 62.2813 93.1073C58.8494 93.1073 56.6553 90.7444 56.6553 87.0312ZM65.4319 87.0312C65.4319 84.4432 64.2504 82.9242 62.2813 82.9242C60.3122 82.9242 59.1307 84.4432 59.1307 87.0312C59.1307 89.6192 60.3122 91.0819 62.2813 91.0819C64.2504 91.0819 65.4319 89.5629 65.4319 87.0312Z" fill="black"/>
<path d="M81.2407 87.0334C81.2407 90.7466 79.2716 93.1095 76.2898 93.1095C74.7708 93.1658 73.308 92.3781 72.5204 91.0279H72.4641V96.9352H70.0449V81.1261H72.4078V83.0952H72.4641C73.2518 81.745 74.7145 80.9573 76.2336 81.0136C79.2716 80.9573 81.2407 83.3202 81.2407 87.0334ZM78.709 87.0334C78.709 84.6142 77.4713 83.0389 75.5584 83.0389C73.6456 83.0389 72.4078 84.6705 72.4078 87.0334C72.4078 89.3964 73.6456 91.0279 75.5584 91.0279C77.4713 91.0279 78.709 89.4526 78.709 87.0334Z" fill="black"/>
<path d="M93.5592 89.4504C93.2217 91.5883 91.14 93.1073 88.4395 93.1073C84.9514 93.1073 82.8135 90.8006 82.8135 87.0874C82.8135 83.3743 84.9514 80.9551 88.327 80.9551C91.7026 80.9551 93.6717 83.2055 93.6717 86.8061V87.65H85.2889V87.8188C85.2889 89.8442 86.5829 91.1944 88.4958 91.1944C89.846 91.1944 90.915 90.5756 91.2525 89.5066L93.5592 89.4504ZM85.2889 85.906H91.2525C91.1963 84.1057 90.0148 82.8679 88.327 82.8679C86.6392 82.8679 85.4577 84.1057 85.2889 85.906Z" fill="black"/>
<path d="M95.9238 81.0701H98.2305V83.0955H98.2867C98.6243 81.8015 99.8058 80.9013 101.156 80.9576C101.437 80.9576 101.719 81.0138 102 81.0701V83.3768C101.662 83.2642 101.269 83.208 100.875 83.208C99.2994 83.208 98.343 84.2769 98.343 85.9647V92.9973H95.9238V81.0701Z" fill="black"/>
<path d="M12.7705 115.786H6.52556L5.00653 120.174H2.3623L8.26964 103.858H11.0264L16.9337 120.174H14.2332L12.7705 115.786ZM7.20069 113.704H12.1516L9.73241 106.559H9.67614L7.20069 113.704Z" fill="black"/>
<path d="M26.1041 112.353C25.879 111.003 24.6413 110.047 23.2911 110.159C21.4345 110.159 20.1968 111.734 20.1968 114.21C20.1968 116.685 21.4345 118.261 23.3473 118.261C24.8664 118.261 25.879 117.529 26.1041 116.123H28.467C28.1857 118.598 26.2166 120.286 23.2911 120.286C19.9155 120.286 17.665 117.979 17.665 114.21C17.665 110.44 19.8592 108.134 23.2348 108.134C26.2729 108.134 28.1857 110.047 28.4108 112.353H26.1041Z" fill="black"/>
<path d="M29.9287 116.797C29.9287 114.716 31.504 113.478 34.3733 113.309L37.6364 113.14V112.24C37.6364 110.89 36.7925 110.159 35.2734 110.159C33.9232 110.159 32.9668 110.777 32.798 111.846H30.4913C30.5476 109.708 32.5729 108.189 35.3297 108.189C38.0865 108.189 40.0556 109.708 40.0556 112.071V120.229H37.6926V118.26H37.6364C36.8487 119.61 35.4422 120.454 33.8669 120.398C31.5603 120.398 29.9287 118.935 29.9287 116.797ZM37.6364 115.728V114.828L34.7108 114.997C33.2481 115.109 32.4042 115.728 32.4042 116.741C32.4042 117.754 33.2481 118.429 34.5983 118.429C36.2861 118.429 37.6364 117.247 37.6364 115.728Z" fill="black"/>
<path d="M42.252 114.212C42.252 110.555 44.2773 108.136 47.2029 108.136C48.7219 108.08 50.1847 108.867 50.9161 110.217H50.9723V103.804H53.4478V120.119H51.0848V118.094H51.0285C50.2972 119.5 48.8344 120.344 47.2591 120.232C44.2773 120.288 42.3082 117.925 42.252 114.212ZM44.7837 114.212C44.7837 116.631 46.0214 118.206 47.9342 118.206C49.8471 118.206 51.0848 116.631 51.0848 114.212C51.0848 111.793 49.8471 110.217 47.9342 110.217C46.0214 110.217 44.7837 111.793 44.7837 114.212Z" fill="black"/>
<path d="M66.4986 116.685C66.1611 118.823 64.0795 120.342 61.379 120.342C57.8908 120.342 55.7529 118.035 55.7529 114.322C55.7529 110.609 57.8908 108.189 61.2664 108.189C64.642 108.189 66.6112 110.44 66.6112 114.041V114.884H58.2284V115.053C58.2284 117.079 59.5224 118.429 61.4352 118.429C62.7855 118.429 63.8544 117.81 64.192 116.741L66.4986 116.685ZM58.2846 113.14H64.2482C64.192 111.34 63.0105 110.102 61.3227 110.102C59.6349 110.102 58.3972 111.34 58.2846 113.14Z" fill="black"/>
<path d="M68.8619 108.303H71.1686V110.384H71.2249C71.7875 109.034 73.1377 108.134 74.6005 108.19C76.1195 108.078 77.4698 109.09 77.9198 110.497H77.9761C78.5949 109.034 80.114 108.134 81.6893 108.19C84.0522 108.19 85.5712 109.765 85.5712 112.128V120.23H83.0958V112.691C83.0958 111.172 82.2519 110.272 80.8453 110.272C79.4388 110.272 78.4262 111.284 78.3699 112.635V120.23H75.9507V112.522C76.0632 111.397 75.1631 110.384 74.0379 110.272H73.7003C72.3501 110.272 71.2249 111.397 71.2249 112.747V120.174H68.8057L68.8619 108.303Z" fill="black"/>
<path d="M88.3283 124.561V122.592C88.6096 122.649 88.8347 122.649 89.116 122.649C90.2412 122.649 90.86 122.198 91.2538 120.961L91.4789 120.229L87.2031 108.358H89.8473L92.8854 118.035H92.9416L95.9797 108.358H98.5677L94.1231 120.848C93.1104 123.717 91.929 124.674 89.4535 124.674C89.0035 124.618 88.6659 124.561 88.3283 124.561Z" fill="black"/>
</svg>
