<svg width="168" height="74" viewBox="0 0 168 74" fill="none" xmlns="http://www.w3.org/2000/svg">
<path d="M153.55 26.9677C153.074 28.3959 152.43 29.768 151.562 31.0282C150.386 32.7644 149.154 34.5007 147.193 34.5287C145.261 34.5567 144.673 33.4085 142.489 33.4085C140.304 33.4085 139.632 34.5007 137.812 34.5847C135.936 34.6407 134.508 32.7084 133.303 30.9722C130.839 27.4437 128.991 20.9749 131.483 16.6064C132.687 14.4501 134.928 13.1059 137.392 13.0219C139.24 12.9939 140.976 14.2541 142.097 14.2541C143.217 14.2541 145.345 12.7139 147.557 12.9379C148.481 12.9659 151.086 13.3019 152.766 15.7662C152.626 15.8503 149.658 17.5865 149.686 21.1989C149.77 25.5115 153.522 26.9397 153.55 26.9677ZM146.157 10.5856C147.165 9.38143 147.837 7.70121 147.641 6.021C146.213 6.077 144.477 6.97312 143.441 8.17727C142.517 9.24141 141.705 10.9496 141.929 12.5738C143.525 12.7419 145.149 11.7897 146.157 10.5856Z" fill="white"/>
<path d="M120.086 44.1633C122.494 44.1633 123.922 45.6474 123.922 48.1958C123.922 50.7441 122.494 52.2563 120.086 52.2563H117.229V44.1353L120.086 44.1633ZM118.49 51.1922H119.974C121.71 51.1922 122.634 50.128 122.634 48.2238C122.634 46.3195 121.682 45.2554 119.974 45.2554H118.49V51.1922Z" fill="white"/>
<path d="M130.111 50.5459C129.943 51.6101 128.907 52.3662 127.562 52.3662C125.826 52.3662 124.762 51.218 124.762 49.3698C124.762 47.5215 125.826 46.3174 127.506 46.3174C129.187 46.3174 130.167 47.4375 130.167 49.2298V49.6498H125.994V49.7338C125.994 50.742 126.638 51.414 127.59 51.414C128.262 51.414 128.795 51.106 128.963 50.5739L130.111 50.5459ZM126.022 48.7817H128.991C128.963 47.8856 128.374 47.2695 127.534 47.2695C126.694 47.2695 126.078 47.8856 126.022 48.7817Z" fill="white"/>
<path d="M134.087 52.2838H132.799L130.643 46.375H131.959L133.443 51.1076H133.471L134.956 46.375H136.216L134.087 52.2838Z" fill="white"/>
<path d="M141.873 50.5459C141.705 51.6101 140.668 52.3662 139.324 52.3662C137.588 52.3662 136.524 51.218 136.524 49.3698C136.524 47.5215 137.588 46.3174 139.268 46.3174C140.948 46.3174 141.929 47.4375 141.929 49.2298V49.6498H137.756V49.7338C137.756 50.742 138.4 51.414 139.352 51.414C140.024 51.414 140.556 51.106 140.724 50.5739L141.873 50.5459ZM137.756 48.7817H140.724C140.696 47.8856 140.108 47.2695 139.268 47.2695C138.428 47.2695 137.84 47.8856 137.756 48.7817Z" fill="white"/>
<path d="M144.309 44.1626H143.105V52.2836H144.309V44.1626Z" fill="white"/>
<path d="M145.429 49.3418C145.429 47.4935 146.521 46.3174 148.229 46.3174C149.938 46.3174 151.03 47.4935 151.03 49.3418C151.03 51.19 149.938 52.3662 148.229 52.3662C146.521 52.3662 145.429 51.19 145.429 49.3418ZM149.798 49.3418C149.798 48.0536 149.21 47.2975 148.229 47.2975C147.249 47.2975 146.661 48.0536 146.661 49.3418C146.661 50.6299 147.249 51.358 148.229 51.358C149.21 51.358 149.798 50.6019 149.798 49.3418Z" fill="white"/>
<path d="M157.667 49.3425C157.667 51.1908 156.687 52.3669 155.203 52.3669C154.446 52.3949 153.718 52.0029 153.326 51.3308H153.298V54.2712H152.094V46.4021H153.27V47.3823H153.298C153.69 46.7102 154.418 46.3181 155.175 46.3461C156.687 46.3181 157.667 47.4943 157.667 49.3425ZM156.407 49.3425C156.407 48.1384 155.791 47.3543 154.838 47.3543C153.886 47.3543 153.27 48.1664 153.27 49.3425C153.27 50.5187 153.886 51.3308 154.838 51.3308C155.791 51.3308 156.407 50.5467 156.407 49.3425Z" fill="white"/>
<path d="M163.799 50.5459C163.631 51.6101 162.595 52.3662 161.251 52.3662C159.514 52.3662 158.45 51.218 158.45 49.3698C158.45 47.5215 159.514 46.3174 161.195 46.3174C162.875 46.3174 163.855 47.4375 163.855 49.2298V49.6498H159.682V49.7338C159.682 50.742 160.326 51.414 161.279 51.414C161.951 51.414 162.483 51.106 162.651 50.5739L163.799 50.5459ZM159.682 48.7817H162.651C162.623 47.8856 162.035 47.2695 161.195 47.2695C160.354 47.2695 159.766 47.8856 159.682 48.7817Z" fill="white"/>
<path d="M164.976 46.3746H166.124V47.3828H166.152C166.32 46.7387 166.908 46.2906 167.58 46.3186C167.72 46.3186 167.86 46.3466 168 46.3746V47.5228C167.832 47.4668 167.636 47.4388 167.44 47.4388C166.656 47.4388 166.18 47.9708 166.18 48.8109V52.3114H164.976V46.3746Z" fill="white"/>
<path d="M123.586 63.654H120.478L119.721 65.8383H118.405L121.346 57.7173H122.718L125.658 65.8383H124.314L123.586 63.654ZM120.814 62.6179H123.278L122.074 59.0615H122.046L120.814 62.6179Z" fill="white"/>
<path d="M130.223 61.9445C130.111 61.2724 129.495 60.7964 128.823 60.8524C127.899 60.8524 127.283 61.6365 127.283 62.8686C127.283 64.1008 127.899 64.8849 128.851 64.8849C129.607 64.8849 130.111 64.5208 130.223 63.8207H131.399C131.259 65.0529 130.279 65.893 128.823 65.893C127.143 65.893 126.023 64.7449 126.023 62.8686C126.023 60.9924 127.115 59.8442 128.795 59.8442C130.307 59.8442 131.259 60.7964 131.371 61.9445H130.223Z" fill="white"/>
<path d="M132.127 64.1561C132.127 63.12 132.911 62.5039 134.339 62.4199L135.964 62.3359V61.8878C135.964 61.2158 135.543 60.8517 134.787 60.8517C134.115 60.8517 133.639 61.1597 133.555 61.6918H132.407C132.435 60.6277 133.443 59.8716 134.815 59.8716C136.188 59.8716 137.168 60.6277 137.168 61.8038V65.8644H135.992V64.8842H135.964C135.571 65.5563 134.871 65.9764 134.087 65.9484C132.939 65.9484 132.127 65.2203 132.127 64.1561ZM135.964 63.6241V63.176L134.507 63.26C133.779 63.316 133.359 63.6241 133.359 64.1281C133.359 64.6322 133.779 64.9682 134.451 64.9682C135.291 64.9682 135.964 64.3802 135.964 63.6241Z" fill="white"/>
<path d="M138.26 62.8706C138.26 61.0504 139.268 59.8462 140.725 59.8462C141.481 59.8182 142.209 60.2103 142.573 60.8824H142.601V57.6899H143.833V65.811H142.657V64.8029H142.629C142.265 65.5029 141.537 65.923 140.753 65.867C139.268 65.895 138.288 64.7188 138.26 62.8706ZM139.52 62.8706C139.52 64.0748 140.136 64.8589 141.089 64.8589C142.041 64.8589 142.657 64.0748 142.657 62.8706C142.657 61.6665 142.041 60.8824 141.089 60.8824C140.136 60.8824 139.52 61.6665 139.52 62.8706Z" fill="white"/>
<path d="M150.329 64.1001C150.161 65.1643 149.125 65.9204 147.781 65.9204C146.045 65.9204 144.981 64.7722 144.981 62.924C144.981 61.0757 146.045 59.8716 147.725 59.8716C149.405 59.8716 150.385 60.9917 150.385 62.784V63.204H146.213V63.288C146.213 64.2961 146.857 64.9682 147.809 64.9682C148.481 64.9682 149.013 64.6602 149.181 64.1281L150.329 64.1001ZM146.241 62.3359H149.209C149.181 61.4398 148.593 60.8237 147.753 60.8237C146.913 60.8237 146.297 61.4398 146.241 62.3359Z" fill="white"/>
<path d="M151.506 59.9294H152.654V60.9655H152.682C152.962 60.2934 153.634 59.8454 154.362 59.8734C155.118 59.8174 155.79 60.3214 156.014 61.0215H156.042C156.35 60.2934 157.106 59.8454 157.89 59.8734C159.067 59.8734 159.823 60.6575 159.823 61.8336V65.8662H158.59V62.1137C158.59 61.3576 158.17 60.9095 157.47 60.9095C156.77 60.9095 156.266 61.4136 156.238 62.0857V65.8662H155.034V62.0297C155.09 61.4696 154.642 60.9655 154.082 60.9095H153.914C153.242 60.9095 152.682 61.4696 152.682 62.1417V65.8382H151.478L151.506 59.9294Z" fill="white"/>
<path d="M161.195 68.0216V67.0414C161.335 67.0695 161.447 67.0695 161.587 67.0695C162.147 67.0695 162.455 66.8454 162.651 66.2293L162.763 65.8653L160.635 59.9565H161.951L163.463 64.7732H163.491L165.004 59.9565H166.292L164.079 66.1733C163.575 67.6015 162.987 68.0776 161.755 68.0776C161.531 68.0496 161.363 68.0216 161.195 68.0216Z" fill="white"/>
<path d="M85.9213 0H84.7451V73.7055H85.9213V0Z" fill="white"/>
<path d="M9.74573 47.6769V39.8975H7.13579C6.98177 39.8975 6.85576 39.7715 6.85576 39.6174V38.867C6.85576 38.7129 6.98177 38.5869 7.13579 38.5869H13.8035C13.9575 38.5869 14.0835 38.7101 14.0835 38.867V39.6174C14.0835 39.7715 13.9575 39.8975 13.8035 39.8975H11.1935V47.6769C11.1935 47.8225 11.0759 47.9429 10.9275 47.9429H10.0062C9.86054 47.9429 9.74013 47.8253 9.74013 47.6769" fill="white"/>
<path d="M16.251 48.0612C15.7497 48.0612 15.3017 47.9492 14.9068 47.728C14.512 47.5068 14.2039 47.1903 13.9799 46.7787C13.7559 46.3698 13.6438 45.8797 13.6438 45.3085V41.6316C13.6438 41.4776 13.7699 41.3516 13.9239 41.3516H14.75C14.904 41.3516 15.03 41.4776 15.03 41.6316V45.2161C15.03 45.7845 15.1728 46.2074 15.4613 46.479C15.7469 46.7507 16.1474 46.8879 16.657 46.8879C17.2227 46.8879 17.6764 46.6975 18.0208 46.3194C18.3652 45.9414 18.5389 45.3953 18.5389 44.684V41.6344C18.5389 41.4804 18.6649 41.3544 18.8189 41.3544H19.645C19.799 41.3544 19.9251 41.4804 19.9251 41.6344V47.6804C19.9251 47.826 19.8046 47.9464 19.659 47.9464H18.8021C18.6733 47.9464 18.5669 47.84 18.5669 47.7112V46.395C18.3596 46.9915 17.6372 48.0668 16.2566 48.0668" fill="white"/>
<path d="M22.1096 47.722L21.0763 41.6788C21.0483 41.508 21.1771 41.354 21.3507 41.354H22.174C22.3057 41.354 22.4177 41.4492 22.4373 41.5808L23.2326 47.0219H23.4538L24.5655 41.5668C24.5907 41.4436 24.7 41.354 24.826 41.354H26.635C26.761 41.354 26.8702 41.4436 26.8954 41.5668L27.996 47.0219H28.2088L29.0097 41.5808C29.0293 41.4492 29.1413 41.354 29.2729 41.354H30.0963C30.2699 41.354 30.4015 41.5108 30.3707 41.6788L29.3346 47.722C29.3122 47.848 29.2029 47.9433 29.0741 47.9433H27.1895C27.0635 47.9433 26.9543 47.8536 26.929 47.7304L25.7725 42.2165H25.6745L24.5179 47.7304C24.4927 47.8536 24.3835 47.9433 24.2575 47.9433H22.3729C22.244 47.9433 22.132 47.8508 22.1124 47.722" fill="white"/>
<path d="M33.5239 48.1269C33.0507 48.1269 32.625 48.0456 32.2554 47.886C31.8829 47.7264 31.5889 47.4884 31.3676 47.1775C31.1492 46.8667 31.0372 46.4886 31.0372 46.0434C31.0372 45.5981 31.1464 45.2117 31.3676 44.9148C31.5861 44.6152 31.8857 44.3912 32.2666 44.24C32.6474 44.0887 33.0787 44.0131 33.5631 44.0131H35.5766V43.5847C35.5766 43.201 35.459 42.893 35.2265 42.6634C34.9941 42.4337 34.6357 42.3161 34.1512 42.3161C33.6667 42.3161 33.3139 42.4281 33.0619 42.6522C32.8714 42.823 32.7286 43.0302 32.6362 43.2794C32.5886 43.4083 32.457 43.4867 32.3254 43.4447L31.4685 43.2262C31.3116 43.187 31.2276 43.0106 31.3004 42.8622C31.4321 42.6017 31.6197 42.3469 31.7933 42.1369C32.0313 41.8485 32.345 41.6132 32.7398 41.4368C33.1347 41.2576 33.6079 41.168 34.1652 41.168C35.0249 41.168 35.6998 41.3864 36.1927 41.8233C36.6827 42.2601 36.932 42.879 36.932 43.6799V46.3934C36.932 46.6595 37.058 46.7939 37.3072 46.7939H37.6516C37.7721 46.7939 37.8701 46.8919 37.8701 47.0123V47.7236C37.8701 47.844 37.7721 47.942 37.6516 47.942H36.8367C36.0134 47.942 35.8258 47.2644 35.8258 46.8471C35.6242 47.438 34.8989 47.8048 34.6217 47.9336C34.3444 48.0624 33.9776 48.1297 33.5211 48.1297M33.7255 46.9927C34.28 46.9927 34.7281 46.8359 35.0697 46.5195C35.4086 46.203 35.5794 45.769 35.5794 45.2173V45.0829H33.6443C33.2775 45.0829 32.9807 45.1613 32.7566 45.3153C32.5326 45.4721 32.4206 45.7017 32.4206 46.0042C32.4206 46.3066 32.5354 46.5475 32.7706 46.7267C33.0031 46.9059 33.3195 46.9955 33.7255 46.9955" fill="white"/>
<path d="M39.3797 40.4576C39.1108 40.4576 38.884 40.3707 38.702 40.1971C38.5172 40.0235 38.4276 39.7995 38.4276 39.5222C38.4276 39.245 38.52 39.021 38.702 38.8473C38.884 38.6737 39.1108 38.5869 39.3797 38.5869C39.6485 38.5869 39.8865 38.6737 40.0658 38.8473C40.245 39.021 40.3346 39.245 40.3346 39.5222C40.3346 39.7995 40.245 40.0235 40.0658 40.1971C39.8865 40.3707 39.6569 40.4576 39.3797 40.4576ZM38.6796 47.6629V41.6337C38.6796 41.4797 38.8056 41.3537 38.9596 41.3537H39.7857C39.9397 41.3537 40.0658 41.4769 40.0658 41.6337V47.6629C40.0658 47.8169 39.9397 47.9429 39.7857 47.9429H38.9596C38.8056 47.9429 38.6796 47.8197 38.6796 47.6629Z" fill="white"/>
<path d="M46.8901 50.6139C46.7361 50.6139 46.6101 50.4907 46.6101 50.3339V46.7102C46.4224 47.2339 45.4899 48.1272 44.1653 48.1272C43.6109 48.1272 43.0984 47.9928 42.6335 47.7268C42.1687 47.4607 41.7962 47.0743 41.519 46.5702C41.2418 46.0662 41.1017 45.4585 41.1017 44.7472V44.5456C41.1017 43.8315 41.2418 43.2266 41.5246 42.7225C41.8074 42.2185 42.1799 41.8348 42.6447 41.566C43.1096 41.2999 43.6557 41.1655 44.2017 41.1655C45.5403 41.1655 46.47 42.0952 46.6353 42.8009V41.6108C46.6353 41.468 46.7501 41.3532 46.8929 41.3532H47.7274C47.873 41.3532 47.9934 41.4736 47.9934 41.6192V50.3367C47.9934 50.4907 47.8674 50.6167 47.7134 50.6167H46.8873L46.8901 50.6139ZM44.5574 46.9259C45.1651 46.9259 45.6635 46.7326 46.0472 46.3518C46.4308 45.9681 46.6241 45.4193 46.6241 44.708V44.5876C46.6241 43.8847 46.4308 43.3414 46.0388 42.9578C45.6495 42.5741 45.1539 42.3837 44.5546 42.3837C43.9553 42.3837 43.4737 42.5741 43.0844 42.9578C42.6952 43.3414 42.4991 43.8847 42.4991 44.5876V44.708C42.4991 45.4193 42.6952 45.9681 43.0844 46.3518C43.4737 46.7354 43.9637 46.9259 44.5546 46.9259" fill="white"/>
<path d="M18.1725 63.2045C17.6992 63.2045 17.2735 63.1233 16.9039 62.9637C16.5315 62.804 16.2374 62.566 16.0162 62.2552C15.7978 61.9443 15.6857 61.5663 15.6857 61.121C15.6857 60.6758 15.795 60.2893 16.0162 59.9925C16.2346 59.6928 16.5343 59.4688 16.9151 59.3176C17.296 59.1664 17.7272 59.0908 18.2117 59.0908H20.2251V58.6623C20.2251 58.2787 20.1075 57.9706 19.8751 57.741C19.6427 57.5114 19.2842 57.3938 18.7997 57.3938C18.3153 57.3938 17.9624 57.5058 17.7104 57.7298C17.52 57.9006 17.3772 58.1078 17.2848 58.3571C17.2371 58.4859 17.1055 58.5643 16.9739 58.5223L16.117 58.3039C15.9602 58.2647 15.8762 58.0882 15.949 57.9398C16.0806 57.6794 16.2682 57.4246 16.4418 57.2145C16.6799 56.9261 16.9935 56.6909 17.3884 56.5144C17.7832 56.3352 18.2565 56.2456 18.8137 56.2456C19.6735 56.2456 20.3483 56.464 20.8412 56.9009C21.3341 57.3377 21.5805 57.9566 21.5805 58.7575V61.4711C21.5805 61.7371 21.7065 61.8715 21.9557 61.8715H22.3002C22.4206 61.8715 22.5186 61.9695 22.5186 62.09V62.8012C22.5186 62.9217 22.4206 63.0197 22.3002 63.0197H21.4853C20.662 63.0197 20.4744 62.342 20.4744 61.9247C20.2727 62.5156 19.5474 62.8825 19.2702 63.0113C18.993 63.1401 18.6261 63.2073 18.1697 63.2073M18.3741 62.0676C18.9286 62.0676 19.3766 61.9107 19.7183 61.5943C20.0571 61.2779 20.2279 60.8438 20.2279 60.2921V60.1577H18.2929C17.926 60.1577 17.6292 60.2361 17.4052 60.3901C17.1811 60.547 17.0691 60.7766 17.0691 61.079C17.0691 61.3815 17.1839 61.6223 17.4192 61.8015C17.6516 61.9807 17.968 62.0704 18.3741 62.0704" fill="white"/>
<path d="M0.00627667 62.7316L2.56301 53.8265C2.59101 53.7313 2.67782 53.6641 2.77863 53.6641H4.99092C5.09173 53.6641 5.17854 53.7313 5.20654 53.8265L7.75207 62.7316C7.79408 62.8744 7.68486 63.0173 7.53644 63.0173H6.51431C6.4135 63.0173 6.32389 62.9501 6.29868 62.8548L5.72741 60.8134H2.04774L1.47647 62.8548C1.44846 62.9529 1.36165 63.0173 1.26084 63.0173H0.224705C0.0762859 63.0173 -0.0329283 62.8744 0.00907709 62.7316M2.40899 59.4748H5.36336L3.99399 54.5574H3.77836L2.40899 59.4748Z" fill="white"/>
<path d="M11.4571 63.2044C10.8214 63.2044 10.2473 63.0699 9.73207 62.8039C9.21681 62.5379 8.81075 62.1486 8.51111 61.6418C8.21148 61.1349 8.06026 60.5244 8.06026 59.8103V59.6367C8.06026 58.9254 8.21148 58.3149 8.51111 57.8137C8.81075 57.3096 9.21961 56.9232 9.73207 56.6515C10.2473 56.3799 10.8214 56.2427 11.4571 56.2427C12.0928 56.2427 12.6332 56.3603 13.0813 56.5899C13.5294 56.8223 13.8878 57.1304 14.1622 57.5112C14.3891 57.8305 14.5487 58.1777 14.6439 58.5502C14.6747 58.6734 14.5963 58.7994 14.4703 58.8274L13.5686 59.015C13.4509 59.0402 13.3361 58.9674 13.3053 58.8498C13.2521 58.637 13.1737 58.441 13.0645 58.2589C12.9217 58.0181 12.7201 57.8277 12.4596 57.6849C12.1992 57.542 11.8743 57.472 11.4795 57.472C11.0846 57.472 10.7458 57.5588 10.4378 57.7325C10.1297 57.9061 9.88329 58.1553 9.70687 58.4802C9.52765 58.805 9.43803 59.1999 9.43803 59.6647V59.7851C9.43803 60.25 9.52765 60.6448 9.70687 60.9753C9.88609 61.3057 10.1297 61.555 10.4378 61.723C10.7458 61.8938 11.093 61.9778 11.4795 61.9778C12.062 61.9778 12.5044 61.8294 12.8097 61.5298C13.0673 61.2777 13.2437 60.9669 13.3417 60.5972C13.3725 60.4796 13.4902 60.4096 13.6078 60.4376L14.5039 60.642C14.6327 60.6728 14.7083 60.8045 14.6691 60.9305C14.5571 61.2945 14.3863 61.6362 14.1622 61.9526C13.8878 62.3363 13.5294 62.6415 13.0813 62.8683C12.6332 63.0952 12.0928 63.21 11.4571 63.21" fill="white"/>
<path d="M25.5845 63.2049C25.0385 63.2049 24.5316 63.0705 24.0667 62.8044C23.6019 62.5384 23.2294 62.152 22.9466 61.6479C22.6637 61.1438 22.5237 60.5361 22.5237 59.8249V59.6232C22.5237 58.9203 22.6609 58.3127 22.941 57.8058C23.2182 57.2961 23.5907 56.9097 24.0555 56.6436C24.5204 56.3776 25.0328 56.2432 25.5873 56.2432C27.0687 56.2432 27.8248 57.2401 28.032 57.6966V53.8881C28.032 53.7649 28.1328 53.6641 28.2561 53.6641H29.1886C29.3118 53.6641 29.4126 53.7649 29.4126 53.8881V62.7932C29.4126 62.9165 29.3118 63.0173 29.1886 63.0173H28.2813C28.1581 63.0173 28.0572 62.9165 28.0572 62.7932V61.7823C27.9032 62.222 27.2003 63.2049 25.5873 63.2049M25.9738 62.0007C26.573 62.0007 27.0687 61.8075 27.458 61.4267C27.8472 61.043 28.0432 60.4941 28.0432 59.7828V59.6624C28.0432 58.9595 27.85 58.4163 27.4664 58.0326C27.0827 57.649 26.5842 57.4586 25.9766 57.4586C25.3689 57.4586 24.8956 57.649 24.5064 58.0326C24.1171 58.4163 23.9211 58.9595 23.9211 59.6624V59.7828C23.9211 60.4941 24.1171 61.043 24.5064 61.4267C24.8956 61.8103 25.3857 62.0007 25.9766 62.0007" fill="white"/>
<path d="M33.7871 63.2044C33.115 63.2044 32.5298 63.0644 32.0285 62.7843C31.5272 62.5043 31.1352 62.1066 30.8523 61.5942C30.5695 61.0817 30.4295 60.4852 30.4295 59.8103V59.6507C30.4295 58.9646 30.5667 58.3653 30.8467 57.8529C31.124 57.3404 31.5132 56.9428 32.0089 56.6627C32.5046 56.3827 33.0814 56.2427 33.7339 56.2427C34.3864 56.2427 34.9269 56.3827 35.4057 56.6627C35.8846 56.9428 36.2598 57.332 36.5287 57.8305C36.7975 58.3289 36.9319 58.9142 36.9319 59.5807V60.1016H31.8409C31.8577 60.6812 32.0537 61.1405 32.4233 61.4849C32.7958 61.8266 33.2579 62.0002 33.8151 62.0002C34.3332 62.0002 34.7252 61.8854 34.9913 61.653C35.1985 61.4709 35.3693 61.2665 35.5037 61.0397C35.5653 60.9361 35.6942 60.8997 35.8006 60.9529L36.5399 61.3337C36.6547 61.3925 36.6967 61.5382 36.6295 61.6502C36.5175 61.8378 36.3747 62.031 36.201 62.2298C35.963 62.5071 35.6522 62.7367 35.2685 62.9243C34.8821 63.112 34.392 63.2044 33.7899 63.2044M31.8521 59.0458H35.5177C35.4813 58.5474 35.3021 58.1581 34.9801 57.8753C34.658 57.5952 34.238 57.4552 33.7171 57.4552C33.1962 57.4552 32.7762 57.5952 32.4485 57.8753C32.1209 58.1553 31.9221 58.5474 31.8521 59.0458Z" fill="white"/>
<path d="M37.9203 62.791V56.6526C37.9203 56.5294 38.0211 56.4285 38.1443 56.4285H39.0517C39.1749 56.4285 39.2757 56.5294 39.2757 56.6526V57.5627C39.5613 56.9186 40.1606 56.3193 41.2247 56.3193C41.7176 56.3193 42.1125 56.4201 42.4121 56.6218C42.6893 56.8066 43.0562 57.2547 43.1738 57.7111C43.3054 57.3247 43.9859 56.3193 45.2097 56.3193C45.6409 56.3193 46.019 56.4061 46.3522 56.5798C46.6826 56.7534 46.9487 57.0138 47.1447 57.3555C47.3407 57.6999 47.4415 58.1256 47.4415 58.6324V62.791C47.4415 62.9142 47.3407 63.015 47.2175 63.015H46.285C46.1618 63.015 46.061 62.9142 46.061 62.791V58.7388C46.061 58.3384 45.9517 58.0276 45.7333 57.8091C45.5121 57.5907 45.2013 57.4815 44.8008 57.4815C44.3695 57.4815 44.0251 57.6187 43.7675 57.8959C43.507 58.1732 43.3782 58.568 43.3782 59.0861V62.791C43.3782 62.9142 43.2774 63.015 43.1542 63.015H42.2189C42.0957 63.015 41.9948 62.9142 41.9948 62.791V58.7388C41.9948 58.3384 41.8856 58.0276 41.6672 57.8091C41.4488 57.5907 41.1379 57.4815 40.7347 57.4815C40.3062 57.4815 39.9618 57.6187 39.7013 57.8959C39.4409 58.1732 39.3121 58.568 39.3121 59.0861V62.791C39.3121 62.9142 39.2113 63.015 39.0881 63.015H38.1555C38.0323 63.015 37.9315 62.9142 37.9315 62.791" fill="white"/>
<path d="M49.4154 65.4655V64.7122C49.4154 64.589 49.5162 64.4881 49.6394 64.4881H53.1091C53.3583 64.4881 53.4843 64.3537 53.4843 64.0877V61.6878C53.3751 62.1274 52.6638 63.1384 51.188 63.1384C50.6867 63.1384 50.2387 63.0264 49.8466 62.8051C49.4518 62.5811 49.1438 62.2647 48.9197 61.8558C48.6957 61.447 48.5837 60.9597 48.5837 60.3996V56.6555C48.5837 56.5323 48.6845 56.4315 48.8077 56.4315H49.743C49.8662 56.4315 49.9671 56.5323 49.9671 56.6555V60.2932C49.9671 60.8645 50.1099 61.2845 50.3983 61.5562C50.6839 61.8278 51.0816 61.9622 51.5941 61.9622C52.1597 61.9622 52.6134 61.7746 52.9578 61.3993C53.3023 61.0241 53.4759 60.4808 53.4759 59.7695V56.6527C53.4759 56.5295 53.5767 56.4287 53.6999 56.4287H54.6353C54.7585 56.4287 54.8593 56.5295 54.8593 56.6527V64.0793C54.8593 64.9698 54.1368 65.6895 53.2491 65.6895H49.645C49.5218 65.6895 49.421 65.5887 49.421 65.4655" fill="white"/>
<path d="M43.4539 22.0974H38.3264C37.5535 22.0974 36.9263 21.4701 36.9263 20.6972V15.5725C36.9263 14.7996 36.299 14.1723 35.5261 14.1723H30.407C29.6341 14.1723 29.0068 13.5451 29.0068 12.7722V7.65311C29.0068 6.88021 28.3796 6.25293 27.6067 6.25293H22.454C21.6811 6.25293 21.0538 6.88021 21.0538 7.65311V12.3409C21.0538 13.4975 20.5386 14.5952 19.6508 15.3373L10.8409 22.677C10.3873 23.0551 10.124 23.6152 10.124 24.2088V30.0504C10.124 30.8177 11.0173 31.2349 11.6054 30.7449L20.6002 23.2539C20.9194 22.9879 21.1042 22.593 21.1042 22.1786V15.9534C21.1042 14.9901 21.8855 14.2059 22.8517 14.2059H27.5759C28.3488 14.2059 28.976 14.8332 28.976 15.6061V20.7252C28.976 21.4981 29.6033 22.1254 30.3762 22.1254H35.5009C36.2738 22.1254 36.9011 22.7526 36.9011 23.5255V28.6502C36.9011 29.4231 37.5283 30.0504 38.3012 30.0504H43.4511C44.224 30.0504 44.8513 29.4231 44.8513 28.6502V23.5003C44.8513 22.7274 44.224 22.1002 43.4511 22.1002" fill="white"/>
<path d="M26.0332 24.7915C26.3356 24.5786 26.372 24.5366 26.3608 24.6766L26.1284 25.0827C26.0444 25.2871 25.7307 25.0015 26.0304 24.7915" fill="white"/>
<path d="M23.5993 25.3514C23.7393 25.1554 23.8961 24.979 24.067 24.8138C24.0922 24.7914 24.1762 24.6962 24.2098 24.6934C24.2126 24.6934 24.2098 24.7046 24.1986 24.7158C24.1902 24.727 24.1846 24.7382 24.1818 24.7438C24.109 24.8698 23.6021 25.7827 23.5965 25.9479C23.5881 26.1271 23.9886 26.0123 24.095 25.9311C24.1594 25.8835 24.1566 25.7855 24.1566 25.7015C24.1594 25.5475 24.0754 25.4074 24.2126 25.287C24.305 25.2058 24.4926 25.1302 24.6046 25.203C24.8707 25.3766 24.4786 25.7855 24.3582 25.9255C24.2126 26.0935 24.0446 26.2392 23.8569 26.3512C23.7477 26.4184 23.4509 26.6396 23.3249 26.522C23.3053 26.5052 23.2969 26.4772 23.2913 26.4548C23.1905 26.0347 23.3641 25.6847 23.5993 25.357" fill="white"/>
<path d="M23.7392 27.4512C23.6188 27.594 23.1287 27.5856 23.1287 27.5856C23.1287 27.5856 23.5292 27.2439 23.7504 27.0759C23.9744 26.9051 24.3777 26.3954 24.5429 26.2134C24.7053 26.0314 24.9825 25.6729 25.0638 25.5665C25.1422 25.4657 25.397 25.1885 25.397 25.1885C25.397 25.1885 25.5398 25.4657 25.173 25.9194C25.0218 26.1042 24.6409 26.4598 24.4505 26.6811C24.2601 26.9023 23.8596 27.3083 23.7392 27.4512Z" fill="white"/>
<path d="M27.0243 25.1823C26.9907 25.1907 26.9515 25.1935 26.9206 25.2075C26.8674 25.2299 26.8814 25.2495 26.8842 25.3111C26.8842 25.4316 26.8786 25.552 26.8562 25.6696C26.845 25.734 26.8282 25.7984 26.7918 25.8488C26.7134 25.958 26.5734 25.9804 26.4838 26.0728C26.3886 26.1681 26.299 26.2717 26.215 26.3753C26.159 26.4425 26.1113 26.6637 26.0945 26.7505C26.0357 27.0642 25.302 27.3386 24.9408 27.3386C24.4171 27.3386 24.8148 27.025 24.896 26.9634C24.9044 26.9578 24.9156 26.9522 24.9268 26.9522L25.6353 26.8765C25.9433 26.8457 26.0385 26.4229 25.9069 26.3081C25.7753 26.1933 25.6493 26.1541 25.6325 25.9244C25.6241 25.818 25.7837 25.3896 26.1562 25.5884C26.3662 25.6976 26.5762 25.6836 26.5762 25.6836V25.5996L26.5454 25.2327C26.3074 25.2803 26.369 25.1095 26.3942 25.0283C26.4194 24.9471 26.509 24.9695 26.7246 24.8715C26.915 24.7847 26.9879 24.7427 27.0299 24.7427L27.0775 25.1207C27.0775 25.1515 27.0607 25.1823 27.0299 25.1879" fill="white"/>
</svg>
