<svg width="144" height="54" viewBox="0 0 144 54" fill="none" xmlns="http://www.w3.org/2000/svg">
<path d="M131.614 17.9543C131.206 19.1785 130.654 20.3546 129.91 21.4348C128.902 22.9229 127.846 24.4111 126.166 24.4351C124.509 24.4591 124.005 23.475 122.133 23.475C120.261 23.475 119.685 24.4111 118.125 24.4831C116.516 24.5311 115.292 22.8749 114.26 21.3867C112.148 18.3624 110.564 12.8176 112.7 9.07316C113.732 7.22493 115.652 6.07278 117.765 6.00077C119.349 5.97677 120.837 7.0569 121.797 7.0569C122.757 7.0569 124.581 5.73674 126.478 5.92876C127.27 5.95276 129.502 6.2408 130.942 8.35307C130.822 8.42508 128.278 9.91327 128.302 13.0097C128.374 16.7061 131.59 17.9303 131.614 17.9543ZM125.278 3.9125C126.142 2.88037 126.718 1.44018 126.55 0C125.326 0.0480062 123.837 0.816105 122.949 1.84824C122.157 2.76035 121.461 4.22454 121.653 5.61672C123.021 5.76074 124.413 4.94463 125.278 3.9125Z" fill="black"/>
<path d="M102.931 32.6939C104.995 32.6939 106.219 33.9661 106.219 36.1504C106.219 38.3346 104.995 39.6308 102.931 39.6308H100.482V32.6699L102.931 32.6939ZM101.563 38.7187H102.835C104.323 38.7187 105.115 37.8066 105.115 36.1744C105.115 34.5422 104.299 33.63 102.835 33.63H101.563V38.7187Z" fill="black"/>
<path d="M111.524 38.1635C111.38 39.0756 110.492 39.7237 109.34 39.7237C107.852 39.7237 106.939 38.7396 106.939 37.1554C106.939 35.5712 107.852 34.5391 109.292 34.5391C110.732 34.5391 111.572 35.4992 111.572 37.0354V37.3954H107.996V37.4674C107.996 38.3315 108.548 38.9076 109.364 38.9076C109.94 38.9076 110.396 38.6436 110.54 38.1875L111.524 38.1635ZM108.02 36.6513H110.564C110.54 35.8832 110.036 35.3552 109.316 35.3552C108.596 35.3552 108.068 35.8832 108.02 36.6513Z" fill="black"/>
<path d="M114.932 39.6535H113.828L111.979 34.5889H113.108L114.38 38.6454H114.404L115.676 34.5889H116.756L114.932 39.6535Z" fill="black"/>
<path d="M121.605 38.1635C121.461 39.0756 120.573 39.7237 119.421 39.7237C117.933 39.7237 117.021 38.7396 117.021 37.1554C117.021 35.5712 117.933 34.5391 119.373 34.5391C120.813 34.5391 121.653 35.4992 121.653 37.0354V37.3954H118.077V37.4674C118.077 38.3315 118.629 38.9076 119.445 38.9076C120.021 38.9076 120.477 38.6436 120.621 38.1875L121.605 38.1635ZM118.077 36.6513H120.621C120.597 35.8832 120.093 35.3552 119.373 35.3552C118.653 35.3552 118.149 35.8832 118.077 36.6513Z" fill="black"/>
<path d="M123.693 32.6934H122.661V39.6543H123.693V32.6934Z" fill="black"/>
<path d="M124.653 37.1314C124.653 35.5472 125.589 34.5391 127.054 34.5391C128.518 34.5391 129.454 35.5472 129.454 37.1314C129.454 38.7156 128.518 39.7237 127.054 39.7237C125.589 39.7237 124.653 38.7156 124.653 37.1314ZM128.398 37.1314C128.398 36.0273 127.894 35.3792 127.054 35.3792C126.214 35.3792 125.709 36.0273 125.709 37.1314C125.709 38.2355 126.214 38.8596 127.054 38.8596C127.894 38.8596 128.398 38.2115 128.398 37.1314Z" fill="black"/>
<path d="M135.143 37.132C135.143 38.7162 134.303 39.7244 133.031 39.7244C132.382 39.7484 131.758 39.4123 131.422 38.8363H131.398V41.3566H130.366V34.6117H131.374V35.4518H131.398C131.734 34.8757 132.358 34.5397 133.007 34.5637C134.303 34.5397 135.143 35.5478 135.143 37.132ZM134.063 37.132C134.063 36.0999 133.535 35.4278 132.719 35.4278C131.902 35.4278 131.374 36.1239 131.374 37.132C131.374 38.1402 131.902 38.8363 132.719 38.8363C133.535 38.8363 134.063 38.1642 134.063 37.132Z" fill="black"/>
<path d="M140.399 38.1635C140.255 39.0756 139.367 39.7237 138.215 39.7237C136.727 39.7237 135.814 38.7396 135.814 37.1554C135.814 35.5712 136.727 34.5391 138.167 34.5391C139.607 34.5391 140.447 35.4992 140.447 37.0354V37.3954H136.871V37.4674C136.871 38.3315 137.423 38.9076 138.239 38.9076C138.815 38.9076 139.271 38.6436 139.415 38.1875L140.399 38.1635ZM136.871 36.6513H139.415C139.391 35.8832 138.887 35.3552 138.167 35.3552C137.447 35.3552 136.943 35.8832 136.871 36.6513Z" fill="black"/>
<path d="M141.407 34.5881H142.391V35.4522H142.415C142.559 34.9002 143.063 34.5161 143.64 34.5401C143.76 34.5401 143.88 34.5641 144 34.5881V35.5723C143.856 35.5243 143.688 35.5003 143.519 35.5003C142.847 35.5003 142.439 35.9563 142.439 36.6764V39.6768H141.407V34.5881Z" fill="black"/>
<path d="M105.931 49.3992H103.266L102.618 51.2714H101.49L104.011 44.3105H105.187L107.707 51.2714H106.555L105.931 49.3992ZM103.555 48.5111H105.667L104.635 45.4627H104.611L103.555 48.5111Z" fill="black"/>
<path d="M111.62 47.935C111.524 47.3589 110.996 46.9509 110.42 46.9989C109.628 46.9989 109.1 47.671 109.1 48.7271C109.1 49.7832 109.628 50.4553 110.444 50.4553C111.092 50.4553 111.524 50.1433 111.62 49.5432H112.628C112.508 50.5993 111.668 51.3194 110.42 51.3194C108.98 51.3194 108.02 50.3353 108.02 48.7271C108.02 47.1189 108.956 46.1348 110.396 46.1348C111.692 46.1348 112.508 46.9509 112.604 47.935H111.62Z" fill="black"/>
<path d="M113.252 49.8307C113.252 48.9426 113.924 48.4145 115.148 48.3425L116.54 48.2705V47.8864C116.54 47.3104 116.18 46.9983 115.532 46.9983C114.956 46.9983 114.548 47.2623 114.476 47.7184H113.492C113.516 46.8063 114.38 46.1582 115.556 46.1582C116.732 46.1582 117.573 46.8063 117.573 47.8144V51.2949H116.564V50.4548H116.54C116.204 51.0308 115.604 51.3909 114.932 51.3669C113.948 51.3669 113.252 50.7428 113.252 49.8307ZM116.54 49.3746V48.9906L115.292 49.0626C114.668 49.1106 114.308 49.3746 114.308 49.8067C114.308 50.2387 114.668 50.5268 115.244 50.5268C115.964 50.5268 116.54 50.0227 116.54 49.3746Z" fill="black"/>
<path d="M118.509 48.7277C118.509 47.1675 119.373 46.1353 120.621 46.1353C121.269 46.1113 121.893 46.4474 122.205 47.0235H122.229V44.2871H123.285V51.248H122.277V50.3839H122.253C121.941 50.984 121.317 51.344 120.645 51.296C119.373 51.32 118.533 50.3119 118.509 48.7277ZM119.589 48.7277C119.589 49.7598 120.117 50.4319 120.933 50.4319C121.749 50.4319 122.277 49.7598 122.277 48.7277C122.277 47.6955 121.749 47.0235 120.933 47.0235C120.117 47.0235 119.589 47.6955 119.589 48.7277Z" fill="black"/>
<path d="M128.853 49.7827C128.709 50.6948 127.821 51.3429 126.669 51.3429C125.181 51.3429 124.269 50.3587 124.269 48.7745C124.269 47.1903 125.181 46.1582 126.621 46.1582C128.061 46.1582 128.901 47.1183 128.901 48.6545V49.0146H125.325V49.0866C125.325 49.9507 125.877 50.5268 126.693 50.5268C127.269 50.5268 127.725 50.2627 127.869 49.8067L128.853 49.7827ZM125.349 48.2705H127.893C127.869 47.5024 127.365 46.9743 126.645 46.9743C125.925 46.9743 125.397 47.5024 125.349 48.2705Z" fill="black"/>
<path d="M129.862 46.2069H130.846V47.095H130.87C131.11 46.519 131.686 46.1349 132.31 46.1589C132.958 46.1109 133.534 46.543 133.726 47.143H133.75C134.014 46.519 134.663 46.1349 135.335 46.1589C136.343 46.1589 136.991 46.831 136.991 47.8391V51.2956H135.935V48.0792C135.935 47.4311 135.575 47.047 134.975 47.047C134.374 47.047 133.942 47.4791 133.918 48.0552V51.2956H132.886V48.0072C132.934 47.5271 132.55 47.095 132.07 47.047H131.926C131.35 47.047 130.87 47.5271 130.87 48.1032V51.2716H129.838L129.862 46.2069Z" fill="black"/>
<path d="M138.167 53.1434V52.3032C138.287 52.3272 138.383 52.3272 138.503 52.3272C138.983 52.3272 139.247 52.1352 139.415 51.6072L139.511 51.2951L137.687 46.2305H138.815L140.111 50.359H140.135L141.431 46.2305H142.535L140.639 51.5592C140.207 52.7833 139.703 53.1914 138.647 53.1914C138.455 53.1674 138.311 53.1434 138.167 53.1434Z" fill="black"/>
<path d="M74 2.2832H73V51.2832H74V2.2832Z" fill="#E8E8E8"/>
<path d="M8.35407 35.7055V29.0374H6.11698C5.98497 29.0374 5.87695 28.9294 5.87695 28.7974V28.1541C5.87695 28.0221 5.98497 27.9141 6.11698 27.9141H11.8321C11.9641 27.9141 12.0721 28.0197 12.0721 28.1541V28.7974C12.0721 28.9294 11.9641 29.0374 11.8321 29.0374H9.59503V35.7055C9.59503 35.8303 9.49422 35.9335 9.367 35.9335H8.5773C8.45248 35.9335 8.34927 35.8327 8.34927 35.7055" fill="black"/>
<path d="M13.93 36.0343C13.5003 36.0343 13.1163 35.9383 12.7779 35.7487C12.4394 35.5591 12.1754 35.2878 11.9833 34.935C11.7913 34.5846 11.6953 34.1645 11.6953 33.6748V30.5232C11.6953 30.3912 11.8033 30.2832 11.9353 30.2832H12.6434C12.7755 30.2832 12.8835 30.3912 12.8835 30.5232V33.5956C12.8835 34.0829 13.0059 34.4453 13.2531 34.6782C13.4979 34.911 13.8412 35.0286 14.278 35.0286C14.7629 35.0286 15.1518 34.8654 15.447 34.5414C15.7422 34.2173 15.891 33.7492 15.891 33.1396V30.5256C15.891 30.3936 15.9991 30.2856 16.1311 30.2856H16.8392C16.9712 30.2856 17.0792 30.3936 17.0792 30.5256V35.7079C17.0792 35.8327 16.976 35.9359 16.8512 35.9359H16.1167C16.0063 35.9359 15.9151 35.8447 15.9151 35.7343V34.6062C15.7374 35.1174 15.1181 36.0391 13.9348 36.0391" fill="black"/>
<path d="M18.9505 35.7435L18.0648 30.5636C18.0408 30.4172 18.1512 30.2852 18.3 30.2852H19.0057C19.1185 30.2852 19.2146 30.3668 19.2314 30.4796L19.913 35.1434H20.1027L21.0556 30.4676C21.0772 30.362 21.1708 30.2852 21.2788 30.2852H22.8294C22.9374 30.2852 23.031 30.362 23.0526 30.4676L23.996 35.1434H24.1784L24.8649 30.4796C24.8817 30.3668 24.9777 30.2852 25.0905 30.2852H25.7962C25.945 30.2852 26.0578 30.4196 26.0314 30.5636L25.1433 35.7435C25.1241 35.8515 25.0305 35.9331 24.9201 35.9331H23.3047C23.1967 35.9331 23.1031 35.8563 23.0815 35.7507L22.0901 31.0245H22.0061L21.0148 35.7507C20.9932 35.8563 20.8996 35.9331 20.7916 35.9331H19.1762C19.0657 35.9331 18.9697 35.8539 18.9529 35.7435" fill="black"/>
<path d="M28.735 36.0917C28.3293 36.0917 27.9645 36.0221 27.6476 35.8853C27.3284 35.7485 27.0764 35.5444 26.8868 35.278C26.6995 35.0116 26.6035 34.6875 26.6035 34.3059C26.6035 33.9242 26.6971 33.593 26.8868 33.3386C27.074 33.0817 27.3308 32.8897 27.6573 32.7601C27.9837 32.6305 28.3533 32.5657 28.7686 32.5657H30.4944V32.1984C30.4944 31.8696 30.3936 31.6055 30.1944 31.4087C29.9951 31.2119 29.6879 31.1111 29.2727 31.1111C28.8574 31.1111 28.555 31.2071 28.3389 31.3991C28.1757 31.5455 28.0533 31.7232 27.9741 31.9368C27.9333 32.0472 27.8205 32.1144 27.7077 32.0784L26.9732 31.8912C26.8387 31.8576 26.7667 31.7064 26.8291 31.5791C26.942 31.3559 27.1028 31.1375 27.2516 30.9575C27.4556 30.7102 27.7245 30.5086 28.0629 30.3574C28.4013 30.2038 28.807 30.127 29.2847 30.127C30.0216 30.127 30.6 30.3142 31.0225 30.6886C31.4425 31.0631 31.6562 31.5935 31.6562 32.28V34.6059C31.6562 34.834 31.7642 34.9492 31.9778 34.9492H32.273C32.3763 34.9492 32.4603 35.0332 32.4603 35.1364V35.7461C32.4603 35.8493 32.3763 35.9333 32.273 35.9333H31.5746C30.8689 35.9333 30.708 35.3524 30.708 34.9948C30.5352 35.5012 29.9135 35.8157 29.6759 35.9261C29.4383 36.0365 29.1238 36.0941 28.7326 36.0941M28.9078 35.1196C29.3831 35.1196 29.7671 34.9852 30.06 34.7139C30.3504 34.4427 30.4968 34.0707 30.4968 33.5978V33.4826H28.8382C28.5238 33.4826 28.2693 33.5498 28.0773 33.6818C27.8853 33.8162 27.7893 34.013 27.7893 34.2723C27.7893 34.5315 27.8877 34.7379 28.0893 34.8916C28.2885 35.0452 28.5598 35.122 28.9078 35.122" fill="black"/>
<path d="M33.7546 29.5175C33.5242 29.5175 33.3297 29.4431 33.1737 29.2942C33.0153 29.1454 32.9385 28.9534 32.9385 28.7158C32.9385 28.4781 33.0177 28.2861 33.1737 28.1373C33.3297 27.9885 33.5242 27.9141 33.7546 27.9141C33.985 27.9141 34.189 27.9885 34.3427 28.1373C34.4963 28.2861 34.5731 28.4781 34.5731 28.7158C34.5731 28.9534 34.4963 29.1454 34.3427 29.2942C34.189 29.4431 33.9922 29.5175 33.7546 29.5175ZM33.1545 35.6935V30.5256C33.1545 30.3936 33.2625 30.2856 33.3945 30.2856H34.1026C34.2346 30.2856 34.3427 30.3912 34.3427 30.5256V35.6935C34.3427 35.8255 34.2346 35.9335 34.1026 35.9335H33.3945C33.2625 35.9335 33.1545 35.8279 33.1545 35.6935Z" fill="black"/>
<path d="M40.1909 38.2227C40.0589 38.2227 39.9509 38.117 39.9509 37.9826V34.8766C39.7901 35.3255 38.9908 36.0912 37.8554 36.0912C37.3802 36.0912 36.9409 35.976 36.5425 35.7479C36.144 35.5199 35.8248 35.1887 35.5871 34.7566C35.3495 34.3246 35.2295 33.8037 35.2295 33.194V33.0212C35.2295 32.4091 35.3495 31.8906 35.5919 31.4586C35.8344 31.0265 36.1536 30.6977 36.5521 30.4673C36.9505 30.2392 37.4186 30.124 37.8866 30.124C39.034 30.124 39.8309 30.9209 39.9725 31.5258V30.5057C39.9725 30.3833 40.0709 30.2848 40.1933 30.2848H40.9086C41.0334 30.2848 41.1367 30.3881 41.1367 30.5129V37.985C41.1367 38.117 41.0286 38.2251 40.8966 38.2251H40.1885L40.1909 38.2227ZM38.1915 35.0615C38.7123 35.0615 39.1396 34.8958 39.4684 34.5694C39.7973 34.2406 39.9629 33.7701 39.9629 33.1604V33.0572C39.9629 32.4547 39.7973 31.9891 39.4612 31.6602C39.1276 31.3314 38.7027 31.1682 38.1891 31.1682C37.6754 31.1682 37.2626 31.3314 36.9289 31.6602C36.5953 31.9891 36.4272 32.4547 36.4272 33.0572V33.1604C36.4272 33.7701 36.5953 34.2406 36.9289 34.5694C37.2626 34.8982 37.6826 35.0615 38.1891 35.0615" fill="black"/>
<path d="M15.5758 49.0146C15.1702 49.0146 14.8053 48.945 14.4885 48.8081C14.1692 48.6713 13.9172 48.4673 13.7276 48.2009C13.5403 47.9344 13.4443 47.6104 13.4443 47.2287C13.4443 46.8471 13.5379 46.5159 13.7276 46.2614C13.9148 46.0046 14.1716 45.8126 14.4981 45.6829C14.8245 45.5533 15.1942 45.4885 15.6094 45.4885H17.3352V45.1213C17.3352 44.7924 17.2344 44.5284 17.0352 44.3316C16.836 44.1347 16.5287 44.0339 16.1135 44.0339C15.6982 44.0339 15.3958 44.1299 15.1798 44.322C15.0165 44.4684 14.8941 44.646 14.8149 44.8596C14.7741 44.97 14.6613 45.0373 14.5485 45.0013L13.814 44.814C13.6796 44.7804 13.6076 44.6292 13.67 44.502C13.7828 44.2788 13.9436 44.0603 14.0924 43.8803C14.2964 43.6331 14.5653 43.4315 14.9037 43.2802C15.2422 43.1266 15.6478 43.0498 16.1255 43.0498C16.8624 43.0498 17.4408 43.237 17.8633 43.6115C18.2858 43.9859 18.497 44.5164 18.497 45.2029V47.5288C18.497 47.7568 18.605 47.872 18.8186 47.872H19.1139C19.2171 47.872 19.3011 47.956 19.3011 48.0592V48.6689C19.3011 48.7721 19.2171 48.8561 19.1139 48.8561H18.4154C17.7097 48.8561 17.5489 48.2753 17.5489 47.9176C17.376 48.4241 16.7544 48.7385 16.5167 48.8489C16.2791 48.9594 15.9647 49.017 15.5734 49.017M15.7486 48.04C16.2239 48.04 16.6079 47.9056 16.9008 47.6344C17.1912 47.3632 17.3376 46.9911 17.3376 46.5182V46.403H15.679C15.3646 46.403 15.1101 46.4702 14.9181 46.6023C14.7261 46.7367 14.6301 46.9335 14.6301 47.1927C14.6301 47.452 14.7285 47.6584 14.9301 47.812C15.1294 47.9656 15.4006 48.0424 15.7486 48.0424" fill="black"/>
<path d="M0.00538 48.6101L2.19686 40.9771C2.22086 40.8955 2.29527 40.8379 2.38168 40.8379H4.27793C4.36434 40.8379 4.43875 40.8955 4.46275 40.9771L6.64463 48.6101C6.68064 48.7325 6.58702 48.8549 6.45981 48.8549H5.5837C5.49728 48.8549 5.42047 48.7973 5.39887 48.7157L4.90921 46.9659H1.7552L1.26554 48.7157C1.24154 48.7997 1.16713 48.8549 1.08072 48.8549H0.192604C0.0653879 48.8549 -0.0282243 48.7325 0.00778036 48.6101M2.06484 45.8185H4.59717L3.42342 41.6036H3.23859L2.06484 45.8185Z" fill="black"/>
<path d="M9.81978 49.014C9.27491 49.014 8.78284 48.8988 8.34119 48.6708C7.89953 48.4428 7.55149 48.1091 7.29465 47.6747C7.03782 47.2402 6.9082 46.7169 6.9082 46.1049V45.956C6.9082 45.3464 7.03782 44.8231 7.29465 44.3934C7.55149 43.9614 7.90193 43.6301 8.34119 43.3973C8.78284 43.1645 9.27491 43.0469 9.81978 43.0469C10.3646 43.0469 10.8279 43.1477 11.212 43.3445C11.596 43.5437 11.9032 43.8078 12.1385 44.1342C12.3329 44.4078 12.4697 44.7055 12.5513 45.0247C12.5777 45.1303 12.5105 45.2384 12.4025 45.2624L11.6296 45.4232C11.5288 45.4448 11.4304 45.3824 11.404 45.2816C11.3584 45.0991 11.2912 44.9311 11.1976 44.7751C11.0751 44.5687 10.9023 44.4054 10.6791 44.283C10.4559 44.1606 10.1774 44.1006 9.83898 44.1006C9.50054 44.1006 9.2101 44.175 8.94606 44.3238C8.68203 44.4727 8.4708 44.6863 8.31958 44.9647C8.16596 45.2432 8.08915 45.5816 8.08915 45.98V46.0833C8.08915 46.4817 8.16596 46.8202 8.31958 47.1034C8.4732 47.3866 8.68203 47.6003 8.94606 47.7443C9.2101 47.8907 9.50774 47.9627 9.83898 47.9627C10.3382 47.9627 10.7175 47.8355 10.9791 47.5787C11.2 47.3626 11.3512 47.0962 11.4352 46.7794C11.4616 46.6785 11.5624 46.6185 11.6632 46.6425L12.4313 46.8178C12.5417 46.8442 12.6065 46.957 12.5729 47.065C12.4769 47.377 12.3305 47.6699 12.1385 47.9411C11.9032 48.2699 11.596 48.5316 11.212 48.726C10.8279 48.9204 10.3646 49.0188 9.81978 49.0188" fill="black"/>
<path d="M21.9302 49.0157C21.4621 49.0157 21.0277 48.9005 20.6292 48.6725C20.2308 48.4445 19.9115 48.1132 19.6691 47.6812C19.4267 47.2491 19.3066 46.7282 19.3066 46.1186V45.9457C19.3066 45.3433 19.4243 44.8224 19.6643 44.3879C19.9019 43.9511 20.2212 43.6198 20.6196 43.3918C21.0181 43.1638 21.4573 43.0486 21.9326 43.0486C23.2023 43.0486 23.8504 43.9031 24.028 44.2943V41.0299C24.028 40.9243 24.1145 40.8379 24.2201 40.8379H25.0194C25.125 40.8379 25.2114 40.9243 25.2114 41.0299V48.6629C25.2114 48.7685 25.125 48.8549 25.0194 48.8549H24.2417C24.1361 48.8549 24.0497 48.7685 24.0497 48.6629V47.7964C23.9176 48.1732 23.3152 49.0157 21.9326 49.0157M22.2638 47.9836C22.7775 47.9836 23.2023 47.818 23.536 47.4915C23.8696 47.1627 24.0376 46.6922 24.0376 46.0826V45.9794C24.0376 45.3769 23.872 44.9112 23.5432 44.5824C23.2143 44.2535 22.7871 44.0903 22.2662 44.0903C21.7454 44.0903 21.3397 44.2535 21.0061 44.5824C20.6724 44.9112 20.5044 45.3769 20.5044 45.9794V46.0826C20.5044 46.6922 20.6724 47.1627 21.0061 47.4915C21.3397 47.8204 21.7598 47.9836 22.2662 47.9836" fill="black"/>
<path d="M28.961 49.014C28.3849 49.014 27.8832 48.894 27.4536 48.654C27.0239 48.414 26.6879 48.0731 26.4455 47.6339C26.203 47.1946 26.083 46.6833 26.083 46.1049V45.968C26.083 45.38 26.2006 44.8663 26.4407 44.4271C26.6783 43.9878 27.0119 43.647 27.4368 43.4069C27.8616 43.1669 28.3561 43.0469 28.9154 43.0469C29.4746 43.0469 29.9379 43.1669 30.3484 43.4069C30.7588 43.647 31.0805 43.9806 31.3109 44.4078C31.5413 44.8351 31.6565 45.3368 31.6565 45.908V46.3545H27.2928C27.3072 46.8514 27.4752 47.245 27.792 47.5402C28.1113 47.8331 28.5073 47.9819 28.985 47.9819C29.429 47.9819 29.7651 47.8835 29.9931 47.6843C30.1707 47.5282 30.3172 47.353 30.4324 47.1586C30.4852 47.0698 30.5956 47.0386 30.6868 47.0842L31.3205 47.4106C31.4189 47.461 31.4549 47.5859 31.3973 47.6819C31.3013 47.8427 31.1789 48.0083 31.03 48.1787C30.826 48.4164 30.5596 48.6132 30.2307 48.774C29.8995 48.9348 29.4794 49.014 28.9634 49.014M27.3024 45.4496H30.4444C30.4132 45.0223 30.2595 44.6887 29.9835 44.4463C29.7075 44.2062 29.3474 44.0862 28.901 44.0862C28.4545 44.0862 28.0945 44.2062 27.8136 44.4463C27.5328 44.6863 27.3624 45.0223 27.3024 45.4496Z" fill="black"/>
<path d="M32.5029 48.6604V43.3989C32.5029 43.2933 32.5893 43.2069 32.695 43.2069H33.4727C33.5783 43.2069 33.6647 43.2933 33.6647 43.3989V44.179C33.9095 43.6269 34.4232 43.1133 35.3353 43.1133C35.7577 43.1133 36.0962 43.1997 36.353 43.3725C36.5907 43.5309 36.9051 43.915 37.0059 44.3062C37.1187 43.975 37.702 43.1133 38.7509 43.1133C39.1206 43.1133 39.4446 43.1877 39.7303 43.3365C40.0135 43.4853 40.2415 43.7086 40.4095 44.0014C40.5776 44.2966 40.664 44.6615 40.664 45.0959V48.6604C40.664 48.766 40.5776 48.8524 40.472 48.8524H39.6726C39.567 48.8524 39.4806 48.766 39.4806 48.6604V45.1871C39.4806 44.8439 39.387 44.5775 39.1998 44.3902C39.0102 44.203 38.7437 44.1094 38.4005 44.1094C38.0308 44.1094 37.7356 44.227 37.5148 44.4647C37.2915 44.7023 37.1811 45.0407 37.1811 45.4848V48.6604C37.1811 48.766 37.0947 48.8524 36.9891 48.8524H36.1874C36.0818 48.8524 35.9954 48.766 35.9954 48.6604V45.1871C35.9954 44.8439 35.9018 44.5775 35.7145 44.3902C35.5273 44.203 35.2609 44.1094 34.9152 44.1094C34.548 44.1094 34.2528 44.227 34.0295 44.4647C33.8063 44.7023 33.6959 45.0407 33.6959 45.4848V48.6604C33.6959 48.766 33.6095 48.8524 33.5039 48.8524H32.7046C32.5989 48.8524 32.5125 48.766 32.5125 48.6604" fill="black"/>
<path d="M42.3555 50.9528V50.3071C42.3555 50.2015 42.4419 50.1151 42.5475 50.1151H45.5215C45.7351 50.1151 45.8431 49.9999 45.8431 49.7719V47.7148C45.7495 48.0917 45.1398 48.9582 43.8749 48.9582C43.4452 48.9582 43.0612 48.8622 42.7251 48.6725C42.3867 48.4805 42.1226 48.2093 41.9306 47.8588C41.7386 47.5084 41.6426 47.0907 41.6426 46.6107V43.4015C41.6426 43.2958 41.729 43.2094 41.8346 43.2094H42.6363C42.7419 43.2094 42.8283 43.2958 42.8283 43.4015V46.5195C42.8283 47.0091 42.9507 47.3692 43.198 47.602C43.4428 47.8348 43.7837 47.95 44.2229 47.95C44.7078 47.95 45.0966 47.7892 45.3919 47.4676C45.6871 47.1459 45.8359 46.6803 45.8359 46.0706V43.3991C45.8359 43.2934 45.9223 43.207 46.0279 43.207H46.8296C46.9353 43.207 47.0217 43.2934 47.0217 43.3991V49.7647C47.0217 50.528 46.4024 51.1449 45.6415 51.1449H42.5523C42.4467 51.1449 42.3603 51.0584 42.3603 50.9528" fill="black"/>
<path d="M37.2462 13.7802H32.8512C32.1888 13.7802 31.6511 13.2425 31.6511 12.58V8.18744C31.6511 7.52496 31.1134 6.98729 30.4509 6.98729H26.0632C25.4007 6.98729 24.863 6.44962 24.863 5.78714V1.39937C24.863 0.736888 24.3253 0.199219 23.6629 0.199219H19.2463C18.5838 0.199219 18.0461 0.736888 18.0461 1.39937V5.41749C18.0461 6.40882 17.6045 7.34974 16.8436 7.98582L9.29221 14.277C8.90336 14.6011 8.67773 15.0811 8.67773 15.59V20.597C8.67773 21.2547 9.44343 21.6124 9.9475 21.1923L17.6573 14.7715C17.9309 14.5435 18.0893 14.205 18.0893 13.8498V8.51388C18.0893 7.68818 18.759 7.01609 19.5871 7.01609H23.6365C24.2989 7.01609 24.8366 7.55376 24.8366 8.21625V12.604C24.8366 13.2665 25.3743 13.8042 26.0368 13.8042H30.4293C31.0918 13.8042 31.6295 14.3418 31.6295 15.0043V19.3969C31.6295 20.0594 32.1672 20.597 32.8296 20.597H37.2438C37.9063 20.597 38.444 20.0594 38.444 19.3969V14.9827C38.444 14.3202 37.9063 13.7826 37.2438 13.7826" fill="black"/>
<path d="M22.3144 16.0891C22.5736 15.9067 22.6048 15.8707 22.5952 15.9907L22.396 16.3387C22.324 16.514 22.0551 16.2691 22.312 16.0891" fill="black"/>
<path d="M20.2286 16.5699C20.3486 16.4019 20.483 16.2507 20.6294 16.1091C20.651 16.0899 20.723 16.0083 20.7518 16.0059C20.7542 16.0059 20.7518 16.0155 20.7422 16.0251C20.735 16.0347 20.7302 16.0443 20.7278 16.0491C20.6654 16.1571 20.231 16.9396 20.2262 17.0812C20.219 17.2348 20.5622 17.1364 20.6534 17.0668C20.7086 17.026 20.7062 16.942 20.7062 16.87C20.7086 16.738 20.6366 16.6179 20.7542 16.5147C20.8334 16.4451 20.9943 16.3803 21.0903 16.4427C21.3183 16.5915 20.9823 16.942 20.879 17.062C20.7542 17.206 20.6102 17.3308 20.4494 17.4268C20.3558 17.4844 20.1014 17.6741 19.9933 17.5733C19.9765 17.5589 19.9693 17.5349 19.9645 17.5157C19.8781 17.1556 20.0269 16.8556 20.2286 16.5747" fill="black"/>
<path d="M20.3485 18.3691C20.2452 18.4916 19.8252 18.4844 19.8252 18.4844C19.8252 18.4844 20.1684 18.1915 20.3581 18.0475C20.5501 17.9011 20.8957 17.4642 21.0374 17.3082C21.1766 17.1522 21.4142 16.8449 21.4838 16.7537C21.551 16.6673 21.7694 16.4297 21.7694 16.4297C21.7694 16.4297 21.8919 16.6673 21.5774 17.0562C21.4478 17.2146 21.1214 17.5194 20.9581 17.7091C20.7949 17.8987 20.4517 18.2467 20.3485 18.3691Z" fill="black"/>
<path d="M23.1631 16.4237C23.1343 16.4309 23.1007 16.4333 23.0743 16.4453C23.0286 16.4645 23.0406 16.4813 23.043 16.5341C23.043 16.6374 23.0382 16.7406 23.019 16.8414C23.0094 16.8966 22.995 16.9518 22.9638 16.995C22.8966 17.0886 22.7766 17.1078 22.6998 17.187C22.6182 17.2686 22.5414 17.3574 22.4694 17.4463C22.4214 17.5039 22.3806 17.6935 22.3662 17.7679C22.3158 18.0367 21.6869 18.272 21.3772 18.272C20.9284 18.272 21.2692 18.0031 21.3388 17.9503C21.346 17.9455 21.3556 17.9407 21.3652 17.9407L21.9725 17.8759C22.2365 17.8495 22.3182 17.4871 22.2053 17.3886C22.0925 17.2902 21.9845 17.2566 21.9701 17.0598C21.9629 16.9686 22.0997 16.6013 22.419 16.7718C22.599 16.8654 22.779 16.8534 22.779 16.8534V16.7814L22.7526 16.4669C22.5486 16.5077 22.6014 16.3613 22.623 16.2917C22.6446 16.2221 22.7214 16.2413 22.9062 16.1573C23.0695 16.0829 23.1319 16.0469 23.1679 16.0469L23.2087 16.3709C23.2087 16.3973 23.1943 16.4237 23.1679 16.4285" fill="black"/>
</svg>
